<svg width="37" height="36" viewBox="0 0 37 36" fill="none" xmlns="http://www.w3.org/2000/svg">
<g clip-path="url(#clip0_372_172)">
<path d="M13.3797 33C12.7922 33.0028 12.2271 32.7268 11.8052 32.2311L1.17939 19.7324C0.967601 19.4818 0.798609 19.183 0.682067 18.8532C0.565524 18.5234 0.503713 18.169 0.500162 17.8102C0.492991 17.0857 0.723563 16.3873 1.14115 15.8688C1.55874 15.3503 2.12915 15.0542 2.72688 15.0455C3.32461 15.0368 3.90071 15.3163 4.32845 15.8225L13.3887 26.4753L32.6699 3.77642C33.0983 3.27022 33.6749 2.99102 34.2731 3.00022C34.8713 3.00942 35.4419 3.30629 35.8595 3.8255C36.2771 4.34471 36.5074 5.04374 36.4998 5.76881C36.4922 6.49388 36.2473 7.1856 35.819 7.6918L14.9543 32.2311C14.5324 32.7268 13.9673 33.0028 13.3797 33Z" fill="#0E9F6E"/>
</g>
<defs>
<clipPath id="clip0_372_172">
<rect width="36" height="36" fill="white" transform="translate(0.5)"/>
</clipPath>
</defs>
</svg>
