<svg width="92" height="66" viewBox="0 0 92 66" fill="none" xmlns="http://www.w3.org/2000/svg">
<path d="M48.6739 0.927782C41.5817 0.915829 32.6966 3.15704 23.9309 7.71915C15.1793 12.2813 8.24247 18.2578 4.17044 24.0949C0.0964153 29.9121 -1.00526 35.3309 0.998877 39.1957C3.00501 43.0406 8.07712 45.252 15.1872 45.252C22.2974 45.2719 31.1825 43.0207 39.9282 38.4785C48.6938 33.9164 55.6266 27.9199 59.6907 22.1027C63.7747 16.2856 64.8505 10.8668 62.8583 7.00196C60.8462 3.15704 55.786 0.927782 48.6739 0.927782ZM66.9821 14.9309C66.2848 17.9789 64.7708 21.1066 62.6391 24.1547C58.1368 30.5895 50.7856 36.8648 41.5817 41.6461C32.3778 46.4473 23.0345 48.8578 15.1852 48.8578C11.4798 48.8578 8.04524 48.3 5.1506 47.1246L7.26032 51.1887C9.26845 55.0535 14.3266 57.2649 21.4407 57.2649C28.5528 57.2649 37.438 55.0336 46.1837 50.4715C54.9493 45.9293 61.8821 39.9328 65.9462 34.0957C70.0102 28.2785 71.1259 22.8598 69.1138 19.0149L66.9821 14.9309ZM72.7196 18.2777C74.9509 23.5969 73.1579 30.0715 68.8946 36.1477C65.1294 41.5465 59.372 46.7859 52.2399 51.1688C54.4513 51.4078 56.7622 51.5274 59.113 51.5274C68.9743 51.5274 77.8993 49.4156 84.1946 46.1285C90.5098 42.8414 93.9762 38.5383 93.9762 34.1953C93.9762 29.8524 90.5098 25.5492 84.1946 22.2621C80.9872 20.5887 77.0825 19.2141 72.7196 18.2777ZM93.9762 43.1402C91.9442 45.5109 89.1552 47.6027 85.868 49.316C78.8954 52.9418 69.4923 55.1133 59.113 55.1133C54.8895 55.1133 50.8255 54.7547 47.0204 54.0774C42.3985 56.4082 37.7567 58.1414 33.2942 59.277C33.5333 59.4164 33.7724 59.5359 34.0313 59.6754C40.3266 62.9625 49.2516 65.0742 59.113 65.0742C68.9743 65.0742 77.8993 62.9625 84.1946 59.6754C90.5098 56.3883 93.9762 52.0852 93.9762 47.7422V43.1402Z" fill="#F5CF5C"/>
</svg>
