<svg width="27" height="26" viewBox="0 0 27 26" fill="none" xmlns="http://www.w3.org/2000/svg">
<path d="M6.83333 1H4.16667C3.45942 1 2.78115 1.28095 2.28105 1.78105C1.78095 2.28115 1.5 2.95942 1.5 3.66667V6.33333M20.1667 1H22.8333C23.5406 1 24.2189 1.28095 24.719 1.78105C25.219 2.28115 25.5 2.95942 25.5 3.66667V6.33333M18.8333 7.66667V10.3333M8.16667 7.66667V10.3333M9.5 18.3333C9.5 18.3333 10.8333 19.6667 13.5 19.6667C16.1667 19.6667 17.5 18.3333 17.5 18.3333M13.5 7.66667V14.3333H12.1667M6.83333 25H4.16667C3.45942 25 2.78115 24.719 2.28105 24.219C1.78095 23.7189 1.5 23.0406 1.5 22.3333V19.6667M20.1667 25H22.8333C23.5406 25 24.2189 24.719 24.719 24.219C25.219 23.7189 25.5 23.0406 25.5 22.3333V19.6667" stroke="#334155" stroke-width="1.5" stroke-linecap="round" stroke-linejoin="round"/>
</svg>
