<svg width="21" height="21" viewBox="0 0 21 21" fill="none" xmlns="http://www.w3.org/2000/svg">
<g clip-path="url(#clip0_337_913)">
<path d="M20.305 10.7303C20.305 10.0506 20.2499 9.36713 20.1323 8.69838H10.7V12.5492H16.1014C15.8773 13.7912 15.1571 14.8898 14.1025 15.588V18.0866H17.325C19.2173 16.3449 20.305 13.7728 20.305 10.7303Z" fill="#4285F4"/>
<path d="M10.6999 20.5007C13.397 20.5007 15.6714 19.6152 17.3286 18.0866L14.1061 15.588C13.2096 16.1979 12.0521 16.5433 10.7036 16.5433C8.09474 16.5433 5.88272 14.7833 5.08904 12.4169H1.76367V14.9927C3.46127 18.3695 6.91892 20.5007 10.6999 20.5007Z" fill="#34A853"/>
<path d="M5.0854 12.4169C4.66651 11.175 4.66651 9.83011 5.0854 8.58814V6.01236H1.7637C0.345367 8.83801 0.345367 12.1671 1.7637 14.9927L5.0854 12.4169Z" fill="#FBBC04"/>
<path d="M10.6999 4.45805C12.1256 4.436 13.5035 4.97247 14.536 5.95722L17.3911 3.10218C15.5833 1.40459 13.1838 0.471278 10.6999 0.500674C6.91892 0.500674 3.46126 2.63185 1.76367 6.01234L5.08537 8.58813C5.87537 6.21811 8.09106 4.45805 10.6999 4.45805Z" fill="#EA4335"/>
</g>
<defs>
<clipPath id="clip0_337_913">
<rect width="20" height="20" fill="white" transform="translate(0.5 0.5)"/>
</clipPath>
</defs>
</svg>
