<svg width="24" height="24" viewBox="0 0 24 24" fill="none" xmlns="http://www.w3.org/2000/svg">
<path d="M20.0001 9.99979C20.0001 9.73457 19.8947 9.48022 19.7072 9.29268C19.5197 9.10514 19.2653 8.99979 19.0001 8.99979C18.7349 8.99979 18.4805 9.10514 18.293 9.29268C18.1054 9.48022 18.0001 9.73457 18.0001 9.99979H20.0001ZM6.00008 9.99979C6.00008 9.73457 5.89472 9.48022 5.70719 9.29268C5.51965 9.10514 5.2653 8.99979 5.00008 8.99979C4.73486 8.99979 4.48051 9.10514 4.29297 9.29268C4.10544 9.48022 4.00008 9.73457 4.00008 9.99979H6.00008ZM20.2931 12.7068C20.4817 12.8889 20.7343 12.9897 20.9965 12.9875C21.2587 12.9852 21.5095 12.88 21.6949 12.6946C21.8803 12.5092 21.9855 12.2584 21.9878 11.9962C21.99 11.734 21.8892 11.4814 21.7071 11.2928L20.2931 12.7068ZM12.0001 2.99979L12.7071 2.29279C12.5196 2.10532 12.2652 2 12.0001 2C11.7349 2 11.4806 2.10532 11.2931 2.29279L12.0001 2.99979ZM2.29308 11.2928C2.19757 11.385 2.12139 11.4954 2.06898 11.6174C2.01657 11.7394 1.98898 11.8706 1.98783 12.0034C1.98668 12.1362 2.01198 12.2678 2.06226 12.3907C2.11254 12.5136 2.18679 12.6253 2.28069 12.7192C2.37458 12.8131 2.48623 12.8873 2.60913 12.9376C2.73202 12.9879 2.8637 13.0132 2.99648 13.012C3.12926 13.0109 3.26048 12.9833 3.38249 12.9309C3.50449 12.8785 3.61483 12.8023 3.70708 12.7068L2.29308 11.2928ZM7.00008 21.9998H17.0001V19.9998H7.00008V21.9998ZM20.0001 18.9998V9.99979H18.0001V18.9998H20.0001ZM6.00008 18.9998V9.99979H4.00008V18.9998H6.00008ZM21.7071 11.2928L12.7071 2.29279L11.2931 3.70679L20.2931 12.7068L21.7071 11.2928ZM11.2931 2.29279L2.29308 11.2928L3.70708 12.7068L12.7071 3.70679L11.2931 2.29279ZM17.0001 21.9998C17.7957 21.9998 18.5588 21.6837 19.1214 21.1211C19.684 20.5585 20.0001 19.7954 20.0001 18.9998H18.0001C18.0001 19.265 17.8947 19.5194 17.7072 19.7069C17.5197 19.8944 17.2653 19.9998 17.0001 19.9998V21.9998ZM7.00008 19.9998C6.73486 19.9998 6.48051 19.8944 6.29297 19.7069C6.10544 19.5194 6.00008 19.265 6.00008 18.9998H4.00008C4.00008 19.7954 4.31615 20.5585 4.87876 21.1211C5.44137 21.6837 6.20443 21.9998 7.00008 21.9998V19.9998Z" fill="#6B7280"/>
</svg>
