<svg width="18" height="18" viewBox="0 0 18 18" fill="none" xmlns="http://www.w3.org/2000/svg">
<path d="M9 1.5C13.1421 1.5 16.5 4.85786 16.5 9C16.5 13.1421 13.1421 16.5 9 16.5C4.85786 16.5 1.5 13.1421 1.5 9C1.5 8.6236 1.52772 8.2538 1.58123 7.8923C1.64845 7.4382 1.31609 7 0.85708 7C0.48623 7 0.161 7.2562 0.10471 7.6228C0.0357601 8.0718 0 8.5317 0 9C0 13.9706 4.02944 18 9 18C13.9706 18 18 13.9706 18 9C18 4.02944 13.9706 0 9 0C6.69494 0 4.59227 0.86656 3 2.29168V1.25C3 0.83579 2.66421 0.5 2.25 0.5C1.83579 0.5 1.5 0.83579 1.5 1.25V4.25C1.5 4.66421 1.83579 5 2.25 5H5.25C5.66421 5 6 4.66421 6 4.25C6 3.83579 5.66421 3.5 5.25 3.5H3.90093C5.23907 2.25883 7.0309 1.5 9 1.5ZM9.5 4.75C9.5 4.33579 9.1642 4 8.75 4C8.3358 4 8 4.33579 8 4.75V9.25C8 9.6642 8.3358 10 8.75 10H11.75C12.1642 10 12.5 9.6642 12.5 9.25C12.5 8.8358 12.1642 8.5 11.75 8.5H9.5V4.75Z" fill="#6B7280"/>
</svg>
