<svg width="32" height="32" viewBox="0 0 32 32" fill="none" xmlns="http://www.w3.org/2000/svg">
<path d="M4.00133 10.6667C3.9854 4.66667 3.9854 4 11.9859 4M4.00093 21.3333C3.98907 28 3.9854 28 11.9855 28M27.9993 10.6667C28.0112 4 28.0149 4 20.0148 4M27.9993 21.3333C28.0112 28 28.0149 28 20.0148 28" stroke="#FFFFEE" stroke-width="2.66667" stroke-linecap="round"/>
<path d="M13.0372 11.5557H11.5557V13.0372H13.0372V11.5557ZM9.3335 11.1853C9.3335 10.1626 10.1626 9.3335 11.1853 9.3335H13.4076C14.4303 9.3335 15.2594 10.1626 15.2594 11.1853V13.4076C15.2594 14.4303 14.4303 15.2594 13.4076 15.2594H11.1853C10.1626 15.2594 9.3335 14.4303 9.3335 13.4076V11.1853ZM11.1853 10.815C10.9808 10.815 10.815 10.9808 10.815 11.1853V13.4076C10.815 13.6121 10.9808 13.7779 11.1853 13.7779H13.4076C13.6121 13.7779 13.7779 13.6121 13.7779 13.4076V11.1853C13.7779 10.9808 13.6121 10.815 13.4076 10.815H11.1853ZM11.5557 18.9631H13.0372V20.4446H11.5557V18.9631ZM9.3335 18.5928C9.3335 17.57 10.1626 16.7409 11.1853 16.7409H13.4076C14.4303 16.7409 15.2594 17.57 15.2594 18.5928V20.815C15.2594 21.8377 14.4303 22.6668 13.4076 22.6668H11.1853C10.1626 22.6668 9.3335 21.8377 9.3335 20.815V18.5928ZM11.1853 18.2224C10.9808 18.2224 10.815 18.3882 10.815 18.5928V20.815C10.815 21.0195 10.9808 21.1853 11.1853 21.1853H13.4076C13.6121 21.1853 13.7779 21.0195 13.7779 20.815V18.5928C13.7779 18.3882 13.6121 18.2224 13.4076 18.2224H11.1853ZM20.4446 11.5557H18.9631V13.0372H20.4446V11.5557ZM18.5928 9.3335C17.57 9.3335 16.7409 10.1626 16.7409 11.1853V13.4076C16.7409 14.4303 17.57 15.2594 18.5928 15.2594H20.815C21.8377 15.2594 22.6668 14.4303 22.6668 13.4076V11.1853C22.6668 10.1626 21.8377 9.3335 20.815 9.3335H18.5928ZM18.2224 11.1853C18.2224 10.9808 18.3882 10.815 18.5928 10.815H20.815C21.0195 10.815 21.1853 10.9808 21.1853 11.1853V13.4076C21.1853 13.6121 21.0195 13.7779 20.815 13.7779H18.5928C18.3882 13.7779 18.2224 13.6121 18.2224 13.4076V11.1853ZM16.7409 16.7409H18.7779V18.7779H16.7409V16.7409ZM20.6298 18.7779H18.7779V20.6298H16.7409V22.6668H18.7779V20.6298H20.6298V22.6668H22.6668V20.6298H20.6298V18.7779ZM20.6298 18.7779V16.7409H22.6668V18.7779H20.6298Z" fill="#FFFFEE"/>
</svg>
