<svg width="24" height="24" viewBox="0 0 24 24" fill="none" xmlns="http://www.w3.org/2000/svg">
<rect x="0.8125" y="0.25" width="22.3257" height="23.5" rx="11.1628" fill="#F9FAFB"/>
<rect x="0.8125" y="0.25" width="22.3257" height="23.5" rx="11.1628" stroke="#E5E7EB" stroke-width="0.5"/>
<path d="M7.45964 15.3525C7.35301 15.2531 7.21197 15.1991 7.06625 15.2016C6.92052 15.2042 6.78148 15.2632 6.67842 15.3663C6.57536 15.4693 6.51633 15.6084 6.51376 15.7541C6.51119 15.8998 6.56528 16.0409 6.66464 16.1475L8.16464 17.6475C8.27011 17.7528 8.41308 17.812 8.56214 17.812C8.7112 17.812 8.85417 17.7528 8.95964 17.6475L10.4596 16.1475C10.5149 16.096 10.5592 16.0339 10.59 15.9649C10.6207 15.8959 10.6373 15.8214 10.6386 15.7459C10.6399 15.6704 10.626 15.5953 10.5977 15.5253C10.5694 15.4553 10.5273 15.3916 10.4739 15.3382C10.4205 15.2848 10.3569 15.2427 10.2868 15.2144C10.2168 15.1861 10.1418 15.1722 10.0662 15.1736C9.99072 15.1749 9.91624 15.1914 9.84724 15.2222C9.77824 15.2529 9.71614 15.2972 9.66464 15.3525L9.12464 15.8925V8.25001C9.12464 8.10082 9.06538 7.95775 8.95989 7.85226C8.8544 7.74677 8.71132 7.68751 8.56214 7.68751C8.41296 7.68751 8.26988 7.74677 8.16439 7.85226C8.0589 7.95775 7.99964 8.10082 7.99964 8.25001L7.99964 15.8925L7.45964 15.3525ZM12.6646 8.64751C12.7701 8.75284 12.9131 8.81201 13.0621 8.81201C13.2112 8.81201 13.3542 8.75284 13.4596 8.64751L13.9996 8.10751V15.75C13.9996 15.8992 14.0589 16.0423 14.1644 16.1478C14.2699 16.2532 14.413 16.3125 14.5621 16.3125C14.7113 16.3125 14.8544 16.2532 14.9599 16.1478C15.0654 16.0423 15.1246 15.8992 15.1246 15.75V8.10751L15.6646 8.64751C15.7161 8.70277 15.7782 8.7471 15.8472 8.77784C15.9162 8.80859 15.9907 8.82512 16.0662 8.82645C16.1418 8.82778 16.2168 8.81389 16.2868 8.7856C16.3569 8.75731 16.4205 8.7152 16.4739 8.66179C16.5273 8.60837 16.5694 8.54475 16.5977 8.4747C16.626 8.40466 16.6399 8.32964 16.6386 8.25412C16.6373 8.17859 16.6207 8.1041 16.59 8.0351C16.5592 7.9661 16.5149 7.904 16.4596 7.85251L14.9596 6.35251C14.8542 6.24717 14.7112 6.188 14.5621 6.188C14.4131 6.188 14.2701 6.24717 14.1646 6.35251L12.6646 7.85251C12.5593 7.95798 12.5001 8.10094 12.5001 8.25001C12.5001 8.39907 12.5593 8.54204 12.6646 8.64751Z" fill="#111928"/>
</svg>
