<svg width="21" height="18" viewBox="0 0 21 18" fill="none" xmlns="http://www.w3.org/2000/svg">
<path d="M4.37245 1.68172C4.54909 1.49216 4.64526 1.24143 4.64069 0.982359C4.63612 0.723291 4.53117 0.47611 4.34795 0.292893C4.16473 0.109676 3.91755 0.00472675 3.65848 0.000155796C3.39942 -0.00441516 3.14869 0.0917488 2.95912 0.268389L0.292453 2.93506C0.105186 3.12256 0 3.37672 0 3.64172C0 3.90672 0.105186 4.16089 0.292453 4.34839L2.95912 7.01506C3.05067 7.1133 3.16107 7.19211 3.28374 7.24676C3.4064 7.30142 3.53882 7.33081 3.67309 7.33318C3.80736 7.33555 3.94073 7.31085 4.06525 7.26055C4.18977 7.21026 4.30288 7.1354 4.39784 7.04044C4.4928 6.94548 4.56766 6.83237 4.61795 6.70785C4.66825 6.58334 4.69295 6.44996 4.69058 6.31569C4.68821 6.18142 4.65882 6.049 4.60416 5.92634C4.54951 5.80367 4.4707 5.69327 4.37245 5.60172L3.41245 4.64172H16.9991C17.2643 4.64172 17.5187 4.53637 17.7062 4.34883C17.8938 4.16129 17.9991 3.90694 17.9991 3.64172C17.9991 3.37651 17.8938 3.12215 17.7062 2.93462C17.5187 2.74708 17.2643 2.64172 16.9991 2.64172H3.41245L4.37245 1.68172ZM16.2925 10.9351C16.1052 11.1226 16 11.3767 16 11.6417C16 11.9067 16.1052 12.1609 16.2925 12.3484L17.2525 13.3084H3.66579C3.40057 13.3084 3.14622 13.4137 2.95868 13.6013C2.77114 13.7888 2.66579 14.0432 2.66579 14.3084C2.66579 14.5736 2.77114 14.828 2.95868 15.0155C3.14622 15.203 3.40057 15.3084 3.66579 15.3084H17.2525L16.2925 16.2684C16.1942 16.3599 16.1154 16.4703 16.0607 16.593C16.0061 16.7157 15.9767 16.8481 15.9743 16.9824C15.972 17.1166 15.9967 17.25 16.047 17.3745C16.0973 17.499 16.1721 17.6121 16.2671 17.7071C16.362 17.8021 16.4751 17.8769 16.5997 17.9272C16.7242 17.9775 16.8575 18.0022 16.9918 17.9998C17.1261 17.9975 17.2585 17.9681 17.3812 17.9134C17.5038 17.8588 17.6142 17.78 17.7058 17.6817L20.3725 15.0151C20.5597 14.8276 20.6649 14.5734 20.6649 14.3084C20.6649 14.0434 20.5597 13.7892 20.3725 13.6017L17.7058 10.9351C17.5183 10.7478 17.2641 10.6426 16.9991 10.6426C16.7341 10.6426 16.48 10.7478 16.2925 10.9351Z" fill="white"/>
</svg>
