<svg width="96" height="91" viewBox="0 0 96 91" fill="none" xmlns="http://www.w3.org/2000/svg">
<path d="M52.6739 18.9278C45.5817 18.9158 36.6966 21.157 27.9309 25.7192C19.1793 30.2813 12.2425 36.2578 8.17044 42.0949C4.09642 47.9121 2.99474 53.3309 4.99888 57.1957C7.00501 61.0406 12.0771 63.252 19.1872 63.252C26.2974 63.2719 35.1825 61.0207 43.9282 56.4785C52.6938 51.9164 59.6266 45.9199 63.6907 40.1027C67.7747 34.2856 68.8505 28.8668 66.8583 25.002C64.8462 21.157 59.786 18.9278 52.6739 18.9278ZM70.9821 32.9309C70.2848 35.9789 68.7708 39.1066 66.6391 42.1547C62.1368 48.5895 54.7856 54.8648 45.5817 59.6461C36.3778 64.4473 27.0345 66.8578 19.1852 66.8578C15.4798 66.8578 12.0452 66.3 9.1506 65.1246L11.2603 69.1887C13.2684 73.0535 18.3266 75.2649 25.4407 75.2649C32.5528 75.2649 41.438 73.0336 50.1837 68.4715C58.9493 63.9293 65.8821 57.9328 69.9462 52.0957C74.0102 46.2785 75.1259 40.8598 73.1138 37.0149L70.9821 32.9309ZM76.7196 36.2777C78.9509 41.5969 77.1579 48.0715 72.8946 54.1477C69.1294 59.5465 63.372 64.7859 56.2399 69.1688C58.4513 69.4078 60.7622 69.5274 63.113 69.5274C72.9743 69.5274 81.8993 67.4156 88.1946 64.1285C94.5098 60.8414 97.9762 56.5383 97.9762 52.1953C97.9762 47.8524 94.5098 43.5492 88.1946 40.2621C84.9872 38.5887 81.0825 37.2141 76.7196 36.2777ZM97.9762 61.1402C95.9442 63.5109 93.1552 65.6027 89.868 67.316C82.8954 70.9418 73.4923 73.1133 63.113 73.1133C58.8895 73.1133 54.8255 72.7547 51.0204 72.0774C46.3985 74.4082 41.7567 76.1414 37.2942 77.277C37.5333 77.4164 37.7724 77.5359 38.0313 77.6754C44.3266 80.9625 53.2516 83.0742 63.113 83.0742C72.9743 83.0742 81.8993 80.9625 88.1946 77.6754C94.5098 74.3883 97.9762 70.0852 97.9762 65.7422V61.1402Z" fill="#F5CF5C"/>
</svg>
