<svg width="24" height="24" viewBox="0 0 40 40" fill="none" xmlns="http://www.w3.org/2000/svg">
<path fill-rule="evenodd" clip-rule="evenodd" d="M20.0001 9.25C18.7403 9.25 17.5321 9.75044 16.6413 10.6412C15.7505 11.532 15.2501 12.7402 15.2501 14C15.2501 15.2598 15.7505 16.468 16.6413 17.3588C17.5321 18.2496 18.7403 18.75 20.0001 18.75C21.2598 18.75 22.468 18.2496 23.3588 17.3588C24.2496 16.468 24.7501 15.2598 24.7501 14C24.7501 12.7402 24.2496 11.532 23.3588 10.6412C22.468 9.75044 21.2598 9.25 20.0001 9.25ZM16.7501 14C16.7501 13.138 17.0925 12.3114 17.702 11.7019C18.3115 11.0924 19.1381 10.75 20.0001 10.75C20.862 10.75 21.6887 11.0924 22.2982 11.7019C22.9076 12.3114 23.2501 13.138 23.2501 14C23.2501 14.862 22.9076 15.6886 22.2982 16.2981C21.6887 16.9076 20.862 17.25 20.0001 17.25C19.1381 17.25 18.3115 16.9076 17.702 16.2981C17.0925 15.6886 16.7501 14.862 16.7501 14ZM20.0001 20.25C17.6871 20.25 15.5551 20.776 13.9761 21.664C12.4201 22.54 11.2501 23.866 11.2501 25.5V25.602C11.2491 26.764 11.2481 28.222 12.5271 29.264C13.1561 29.776 14.0371 30.141 15.2271 30.381C16.4191 30.623 17.9741 30.75 20.0001 30.75C22.0261 30.75 23.5801 30.623 24.7741 30.381C25.9641 30.141 26.8441 29.776 27.4741 29.264C28.7531 28.222 28.7511 26.764 28.7501 25.602V25.5C28.7501 23.866 27.5801 22.54 26.0251 21.664C24.4451 20.776 22.3141 20.25 20.0001 20.25ZM12.7501 25.5C12.7501 24.649 13.3721 23.725 14.7111 22.972C16.0271 22.232 17.8951 21.75 20.0011 21.75C22.1051 21.75 23.9731 22.232 25.2891 22.972C26.6291 23.725 27.2501 24.649 27.2501 25.5C27.2501 26.808 27.2101 27.544 26.5261 28.1C26.1561 28.402 25.5361 28.697 24.4761 28.911C23.4191 29.125 21.9741 29.25 20.0001 29.25C18.0261 29.25 16.5801 29.125 15.5241 28.911C14.4641 28.697 13.8441 28.402 13.4741 28.101C12.7901 27.544 12.7501 26.808 12.7501 25.5Z" fill="#6B7280"/>
</svg>
